DataType=double
version=3
OpenSimVersion=4.4-2022-07-23-0e9fedc
endheader
time	ground_force_r_vx	ground_force_r_vy	ground_force_r_vz	ground_force_r_px	ground_force_r_py	ground_force_r_pz	ground_force_l_vx	ground_force_l_vy	ground_force_l_vz	ground_force_l_px	ground_force_l_py	ground_force_l_pz	ground_torque_r_x	ground_torque_r_y	ground_torque_r_z	ground_torque_l_x	ground_torque_l_y	ground_torque_l_z
24.9	0.0003706191534725932	-0.0005571082723781677	0.0008419070228115541	0	0	0	0	0	0	0	0	0	-2.669292789574339e-05	-1.913718711911713e-05	-6.68335806121678e-07	0	0	0
24.928	-8.239318850743141e-07	8.423529370273325e-07	2.842439024715352e-07	0	0	0	-145.2234999103777	107.5182241468913	55.32903986347624	0	0	0	-6.63699185182511e-08	-1.019793438398171e-07	1.10479162913189e-07	-3.835991770166132	-12.2420915964671	13.8322815105759
24.956	-0.0001001188898751762	7.316409545574423e-05	-2.331535411864558e-06	0	0	0	-7.82453810297754e-11	4.167057025394377e-11	1.166231276503762e-11	0	0	0	9.230016459860943e-07	1.160817384611955e-06	-3.243710921454053e-06	-1.826980387851993e-12	-2.12235036265668e-12	-4.934245021171247e-12
24.984	0.0001958164939272805	0.0001561027492944186	2.59574908666528e-05	0	0	0	-0.07812971161888256	0.1363230285558412	-0.1527897850736419	0	0	0	-4.283688127378345e-06	1.645020975814583e-06	1.809541461722431e-05	0.01609554705799246	0.03895714768925666	0.02512078330363546
25.012	0.06079369320039423	0.1153775269289877	0.03877165112118006	0	0	0	-17.78432321774047	11.56386654049943	-4.105629958733205	0	0	0	-0.006721351396705607	0.0007350439290700149	0.01440556752187499	0.1199954069586117	0.4775835622756004	0.7154349316503368
25.04	19.41641930294283	44.75103885016348	34.49016012493325	0	0	0	-43.16208098637409	475.2051227532526	-32.66776443481509	0	0	0	-3.544440243278788	-2.634794844673811	6.125759019482033	-22.74528635704645	19.90497505591882	102.7668079324549
25.068	-128.2491876165078	412.6896820156521	33.53256259614962	0	0	0	-55.19251937042325	725.7206304680539	37.68657482962266	0	0	0	-16.25866326015497	6.002575010103364	33.54578870843616	-59.31604018695857	8.344594989298152	138.4128587793061
25.096	-62.04581906693495	485.6242124241232	34.90386084466434	0	0	0	72.96102363746583	509.3608206319615	-36.65809787975424	0	0	0	-24.14646144962257	-7.122747482805676	53.08736536164567	-38.17495220382577	22.70167871226316	101.5738924645618
25.124	-114.5261076503634	253.8569574963109	-11.68116558855108	0	0	0	-131.3201710023328	117.6212031219227	-14.46971361289185	0	0	0	-8.634210484762569	-0.4269807956600123	18.52903920948844	-8.250632202085512	-10.61288614414386	-11.28723080767869
25.152	-22.13477407639255	421.1366219537822	-14.56218516679491	0	0	0	44.20005359140566	151.0184511376149	-58.56822575475924	0	0	0	-21.86378203844117	-1.681110344706285	49.72517463216665	-0.5259131071196798	12.30691147126782	29.27812984718357
25.18	-59.76137686906807	464.1781733344541	-62.27448763718911	0	0	0	1.902036941678609e-12	-8.380783423041371e-13	3.414033199397291e-13	0	0	0	-20.09956231849352	10.89198067393949	50.20192906817627	-1.593515732550372e-14	8.901162182473794e-14	2.971811809908321e-13
25.208	-1.350571210989129	632.4201999931447	3.546737758144527	0	0	0	-10.71271407836373	5.340555898600334	-4.729243545754247	0	0	0	-30.5994789476641	-0.8167277797844016	76.78349639301958	0.5387182088128611	-0.2092253984878292	-1.449012380129851
25.236	-61.62273078757259	462.5510047095314	-2.994637318125201	0	0	0	2.011605901852305e-09	-7.686313028119611e-10	3.273530226538979e-10	0	0	0	-18.74307633587402	1.727724701695632	46.60412734379921	-6.470054794725862e-11	-5.354095785258853e-11	2.718695627809085e-10
25.264	-8.265119170899233	529.4245885905702	10.77988202056613	0	0	0	-0.5082729773700426	0.2149036327069262	-0.03970913576132171	0	0	0	-27.10412966685619	-6.23535333784401	69.07944102350353	-0.01233914669313594	-0.03759051364301929	-0.04554998407617249
25.292	-92.11927155473627	460.4881190434848	-37.87233050640224	0	0	0	-1.040650164513524e-09	3.881284547648802e-10	-3.168213270639211e-11	0	0	0	-20.69018979081808	-4.337074659819174	56.42294752290825	-2.360594782782116e-12	-1.336171066740814e-11	-8.088927270137806e-11
25.32	-26.39642602007058	525.2506254511836	-2.327581033870432	0	0	0	-7.882217692009175e-07	2.869295412479537e-07	-5.836803988294739e-08	0	0	0	-25.69460208750324	-4.587794811963689	73.12939640579413	8.069730086860408e-09	1.728930481803149e-08	-2.398120125821669e-08
25.348	-88.62351159344892	384.8587362268523	-34.36606232873957	0	0	0	-6.633357698026638e-07	2.20630363421127e-07	-5.498661582043811e-08	0	0	0	-16.58662821277359	6.82210595604967	46.14546138925358	6.363266233440762e-09	1.885850571867827e-08	-7.795538120858591e-10
25.376	1.903468213401268	506.128714581267	4.933199160815379	0	0	0	-2.683246783251241e-07	9.640702463044427e-08	-3.390984198944195e-08	0	0	0	-25.15207844282298	2.089540250353033	67.79493797901762	4.027302068863232e-10	-3.187889261376641e-09	-1.214159184242523e-08
25.404	-32.23382181832579	505.1884623199919	-29.50903172024054	0	0	0	-1.146383108996392e-08	5.826540167138755e-09	-2.541267616461814e-09	0	0	0	-21.71966412658008	5.516409300413063	58.80861044788661	4.258375217890705e-11	-1.343907489894989e-10	-5.002251754427424e-10
25.432	32.23397677451414	623.9049591127117	11.36318700413238	0	0	0	-2.556847375916647e-10	1.79277452808216e-10	-1.225339629832347e-10	0	0	0	-30.51132769731863	-1.739723248808388	84.84006022228644	3.832205150461803e-12	-2.144833389533975e-12	-1.113449006202783e-11
25.46	-56.34240394684944	549.5400213557945	-27.21737631234977	0	0	0	-2.061151000766764e-11	1.669812333011652e-11	-1.238017986550492e-11	0	0	0	-24.97746904615417	-0.4765733386334851	73.57080662594461	4.337079734154584e-13	-1.362284596236183e-13	-9.058136453712646e-13
25.488	21.33721055164484	561.145917436554	4.915139744339186	0	0	0	-1.894550441424581e-12	1.638925438604471e-12	-9.424278462840501e-13	0	0	0	-27.53929088777044	-2.462665005320618	84.48163588330249	2.987499973866119e-14	-1.442395073320001e-14	-8.514123817609962e-14
25.516	-42.79275114123172	444.5466908572903	-40.7671175878294	0	0	0	-9.357291033031957e-13	8.62685887077923e-13	-3.329762906271584e-13	0	0	0	-20.39500518622883	3.71716688201465	65.74888333015734	7.023583451769391e-15	-8.744270447101683e-15	-4.2392598362543e-14
25.544	19.53160666705707	568.4367284093443	-2.603866169080305	0	0	0	-1.301449281354924e-11	1.427314879641667e-11	-1.696910483506836e-12	0	0	0	-29.95887882803222	3.167569530626084	102.6864437150609	-1.017669556735409e-13	-1.571318491540991e-13	-5.411723006535211e-13
25.572	-59.4208797026528	556.0893146013414	-49.77501192209418	0	0	0	2.097054720698458e-09	4.14853832490398e-09	3.098880900764939e-09	0	0	0	-27.74507625657419	11.91153785513887	112.5627474539384	-2.101054219790244e-10	-6.306471003858762e-12	1.506250545563155e-10
25.6	-12.87291033783191	677.6831215025463	13.40148067472114	0	0	0	8.823207804455279e-06	9.389022509887586e-06	6.180308188790923e-06	0	0	0	-35.29834914585518	1.33527378750748	150.4229239065057	-3.976575341151123e-07	5.20638901616108e-08	4.886173308158138e-07
25.628	-61.24493943824206	722.2755865060008	-24.37654099729559	0	0	0	0.08314941813900543	0.06519739357697867	0.04239863904311027	0	0	0	-32.48582951104778	1.891573839632376	161.4641421227234	-0.002446592488039952	0.0006958104393015121	0.003728481542477651
25.656	25.69669472373329	737.7230379591608	46.48487917322331	0	0	0	32.65286153102879	20.47838246362072	7.140101391685121	0	0	0	-34.61292133139487	-12.23312481947063	174.2453108059077	-0.4314748005542667	0.2190164492541125	1.365141725108671
25.684	-33.24371276781523	679.1564086965086	7.774701839804779	0	0	0	133.2593741550247	108.0702673233712	-20.87490036793978	0	0	0	-22.10960888791129	-9.832138414901889	153.3126891549178	1.56347886677175	1.1033554136616	13.38117972555712
25.712	17.07686573395517	524.7965833044932	25.20353172510298	0	0	0	18.46979529145355	40.11157463059997	-37.07783952764954	0	0	0	-12.22153010683644	-12.70905018210635	119.0790691053901	1.709949914297862	5.225076253308221	6.307696142222075
25.74	-83.00632896852866	346.8340883938736	-48.68100897908111	0	0	0	9.7441723013964	13.75663961411636	-11.56259908181368	0	0	0	9.805748943193164	4.947699978811892	56.19742915502871	0.615856837557609	1.774636618488185	2.623825179953246
25.768	0.7778668460663254	314.3059826973319	5.508935337004631	0	0	0	6.46017143920648	7.387914273946406	-5.631108038087876	0	0	0	5.146215230713779	-6.227842565596877	57.75741406607861	0.3339070317906292	0.9067792702557913	1.57239217131469
25.796	-69.3296689294629	342.7722091178632	37.13843195730198	0	0	0	4.544527151565303	4.4464819422328	-2.058823824637489	0	0	0	1.839671669299036	-5.673873828957403	40.14393087341982	0.1569873293732297	0.256107371808915	0.9364020104354627
25.824	8.996671067612498	171.0220156006805	37.78121958068554	0	0	0	32.36335135386067	36.64723443643268	14.27038117923391	0	0	0	-2.55414445450947	-6.730046075515629	27.102328659571	0.307185332371139	-3.923952274398267	8.149031866447494
25.852	4.948371938186225e-05	-2.335428701076298e-05	6.436917374944104e-06	0	0	0	-7.718491362472911	349.4740386350668	73.42310281343293	0	0	0	-4.032114557576366e-07	1.345835650529639e-06	7.98248494812172e-06	8.302381824280619	-18.04203941235839	60.1360340951626
